<svg width="38" height="38" viewBox="0 0 38 38" fill="none" xmlns="http://www.w3.org/2000/svg">
<path d="M2.00179 11.1215L6.23408 25.5138L8.33972 24.4576L4.80931 9.71322L2.00179 11.1215Z" fill="#190D42" stroke="#190D42" stroke-width="3"/>
<path d="M11.681 9.39303L14.0119 24.2126L16.2367 23.4383L14.6474 8.36063L11.681 9.39303Z" fill="#190D42" stroke="#190D42" stroke-width="3"/>
<path d="M19 13.9996C20.5 12.0002 22.5 11 23.5 13.9996C23.5 13.9996 24.8961 13.8261 26 13.9998C27.1039 14.1735 29 14.4998 29 14.4998C29.5 13.4999 31 12.4998 32 12.9998C33.7819 13.8907 35.5 18.667 35.5 25.4998" stroke="#190D42" stroke-width="3"/>
<path d="M21.6438 18.6758L21.2168 20.384" stroke="#190D42" stroke-width="3" stroke-linecap="round"/>
<path d="M25.2897 23.5072L23.5492 23.2407" stroke="#190D42" stroke-width="3" stroke-linecap="round"/>
<path d="M28.4778 19.5303L28.0508 21.2385" stroke="#190D42" stroke-width="3" stroke-linecap="round"/>
<path d="M8.40524 30.2066C7.12409 31.0607 7.97819 32.3418 9.25933 31.9148C10.5405 31.4877 10.1133 29.3525 8.40524 30.2066Z" fill="#190D42" stroke="#190D42" stroke-width="3" stroke-linecap="round"/>
<path d="M15.5908 28.6978C14.3096 29.5519 15.1637 30.833 16.4449 30.406C17.726 29.9789 17.2988 27.8437 15.5908 28.6978Z" fill="#190D42" stroke="#190D42" stroke-width="3" stroke-linecap="round"/>
</svg>
