<svg width="30" height="30" viewBox="0 0 30 30" fill="none" xmlns="http://www.w3.org/2000/svg">
<path d="M21.1641 8.51633C23.5377 5.15406 25.8488 5.74726 27.098 8.12075C28.3473 10.4942 29.4716 15.8352 24.1311 17.4172" stroke="#190D42" stroke-width="2.5"/>
<path d="M3.75844 15.3242C6.55383 15.8616 11.5152 14.8299 14.0454 13.8565C17.1159 12.6752 20.2297 10.7179 21.1633 8.91152C21.6913 8.23173 21.7583 6.34018 19.9781 5.66214C21.5605 6.93357 17.6992 10.8585 11.4728 12.6698C5.35591 14.4492 1.92656 13.6226 2.10128 11.8785C0.775552 13.9356 2.5218 15.0328 3.75844 15.3242Z" fill="#190D42"/>
<path d="M14.0454 13.8565C11.5152 14.8299 6.55383 15.8616 3.75844 15.3242C3.75836 23.9357 9.89032 26.5157 17.2088 24.1421C24.2608 21.8549 25.4346 15.5576 21.1633 8.91152C20.2297 10.7179 17.1159 12.6752 14.0454 13.8565Z" fill="#190D42"/>
<path d="M3.75844 15.3242C6.55383 15.8616 11.5152 14.8299 14.0454 13.8565C17.1159 12.6752 20.2297 10.7179 21.1633 8.91152M3.75844 15.3242C2.5218 15.0328 0.775552 13.9356 2.10128 11.8785M3.75844 15.3242C3.75836 23.9357 9.89032 26.5157 17.2088 24.1421C24.2608 21.8549 25.4346 15.5576 21.1633 8.91152M21.1633 8.91152C21.6913 8.23173 21.7583 6.34018 19.9781 5.66214M2.10128 11.8785C2.2373 10.5207 4.55767 8.60683 9.49482 6.93357C15.8966 4.76393 19.1869 5.15329 19.9781 5.66214M2.10128 11.8785C1.92656 13.6226 5.35591 14.4492 11.4728 12.6698C17.6992 10.8585 21.5605 6.93357 19.9781 5.66214" stroke="#190D42" stroke-width="2.5"/>
<path d="M9.89062 24.9336C9.89062 27.505 10.2862 28.0984 12.2642 24.9336H9.89062Z" fill="#190D42" stroke="#190D42" stroke-width="2.5"/>
<path d="M21.9863 21.5674C23.0676 23.9004 22.9582 24.6051 19.8328 22.5655L21.9863 21.5674Z" fill="#190D42" stroke="#190D42" stroke-width="2.5"/>
</svg>
